<?xml version="1.0" encoding="iso-8859-1"?>
<!-- Generator: Adobe Illustrator 19.0.0, SVG Export Plug-In . SVG Version: 6.00 Build 0)  -->
<svg version="1.1" id="Capa_1" xmlns="http://www.w3.org/2000/svg" xmlns:xlink="http://www.w3.org/1999/xlink" x="0px" y="0px"
	 viewBox="0 0 340 340" style="enable-background:new 0 0 340 340;" xml:space="preserve">
<g id="XMLID_1_">
	<path id="XMLID_2393_" style="fill:#A0815C;" d="M310,110v30v60c0,16.568-13.432,30-30,30h30v30h30V110H310z"/>
	<path id="XMLID_2394_" style="fill:#A0815C;" d="M250,200h-80v30h110C263.432,230,250,216.568,250,200z"/>
	<polygon id="XMLID_2395_" style="fill:#C6B39D;" points="30,200 30,140 30,110 30,80 0,80 0,260 30,260 30,230 170,230 170,200 	
		"/>
	<polygon id="XMLID_2396_" style="fill:#FF5023;" points="30,200 170,200 170,140 100,140 30,140 	"/>
	<rect id="XMLID_2397_" x="170" y="140" style="fill:#BF3C1A;" width="80" height="60"/>
	<path id="XMLID_2398_" style="fill:#802812;" d="M310,200v-60h-60v60c0,16.568,13.432,30,30,30C296.568,230,310,216.568,310,200z"
		/>
	<path id="XMLID_2399_" style="fill:#802812;" d="M100,140c0-16.568-13.432-30-30-30H30v30H100z"/>
</g>
<g>
</g>
<g>
</g>
<g>
</g>
<g>
</g>
<g>
</g>
<g>
</g>
<g>
</g>
<g>
</g>
<g>
</g>
<g>
</g>
<g>
</g>
<g>
</g>
<g>
</g>
<g>
</g>
<g>
</g>
</svg>
